<?xml version="1.0" encoding="UTF-8"?>
<svg xmlns="http://www.w3.org/2000/svg" xmlns:xlink="http://www.w3.org/1999/xlink" viewBox="0 0 35 35" width="35px" height="35px">
<g id="surface1921413">
<path style=" stroke:none;fill-rule:nonzero;fill:rgb(100%,100%,100%);fill-opacity:1;" d="M 10.5 29.167969 L 4.667969 29.167969 L 4.667969 11.667969 L 10.5 11.667969 Z M 7.585938 9.332031 C 5.972656 9.332031 4.667969 8.027344 4.667969 6.414062 C 4.667969 4.804688 5.972656 3.5 7.585938 3.5 C 9.191406 3.5 10.5 4.808594 10.5 6.414062 C 10.5 8.027344 9.191406 9.332031 7.585938 9.332031 Z M 31.5 29.167969 L 25.890625 29.167969 L 25.890625 20.648438 C 25.890625 18.617188 25.851562 16.007812 22.976562 16.007812 C 20.054688 16.007812 19.605469 18.21875 19.605469 20.503906 L 19.605469 29.167969 L 14 29.167969 L 14 11.652344 L 19.382812 11.652344 L 19.382812 14.046875 L 19.457031 14.046875 C 20.207031 12.671875 22.039062 11.21875 24.769531 11.21875 C 30.449219 11.21875 31.5 14.847656 31.5 19.5625 Z M 31.5 29.167969 "/>
</g>
</svg>
