<?xml version="1.0" encoding="UTF-8"?>
<svg xmlns="http://www.w3.org/2000/svg" xmlns:xlink="http://www.w3.org/1999/xlink" viewBox="0 0 35 35" width="35px" height="35px">
<g id="surface1881623">
<path style=" stroke:none;fill-rule:nonzero;fill:rgb(100%,100%,100%);fill-opacity:1;" d="M 17.082031 6.300781 C 12.460938 6.300781 8.121094 6.648438 5.808594 7.140625 C 4.269531 7.488281 2.941406 8.539062 2.660156 10.148438 C 2.382812 11.828125 2.101562 14.351562 2.101562 17.5 C 2.101562 20.648438 2.378906 23.101562 2.730469 24.851562 C 3.011719 26.390625 4.339844 27.511719 5.878906 27.859375 C 8.332031 28.351562 12.527344 28.699219 17.148438 28.699219 C 21.769531 28.699219 25.96875 28.351562 28.417969 27.859375 C 29.960938 27.511719 31.289062 26.460938 31.566406 24.851562 C 31.851562 23.101562 32.199219 20.582031 32.269531 17.433594 C 32.269531 14.28125 31.917969 11.761719 31.566406 10.011719 C 31.289062 8.472656 29.960938 7.351562 28.417969 7 C 25.96875 6.648438 21.699219 6.300781 17.082031 6.300781 Z M 17.082031 7.699219 C 22.121094 7.699219 26.179688 8.117188 28.140625 8.46875 C 29.191406 8.75 30.027344 9.449219 30.167969 10.359375 C 30.589844 12.601562 30.867188 14.980469 30.867188 17.433594 C 30.800781 20.441406 30.449219 22.890625 30.167969 24.640625 C 29.960938 25.96875 28.558594 26.390625 28.140625 26.53125 C 25.617188 27.019531 21.417969 27.367188 17.21875 27.367188 C 13.019531 27.367188 8.75 27.089844 6.300781 26.53125 C 5.25 26.25 4.410156 25.550781 4.269531 24.640625 C 3.710938 22.679688 3.5 20.089844 3.5 17.5 C 3.5 14.277344 3.78125 11.898438 4.058594 10.433594 C 4.269531 9.101562 5.738281 8.679688 6.089844 8.539062 C 8.398438 8.050781 12.671875 7.699219 17.082031 7.699219 Z M 13.300781 11.898438 L 13.300781 23.101562 L 23.101562 17.5 Z M 14.699219 14.28125 L 20.300781 17.5 L 14.699219 20.71875 Z M 14.699219 14.28125 "/>
</g>
</svg>
