<?xml version="1.0" encoding="UTF-8"?>
<svg xmlns="http://www.w3.org/2000/svg" xmlns:xlink="http://www.w3.org/1999/xlink" viewBox="0 0 35 35" width="35px" height="35px">
<g id="surface1918190">
<path style=" stroke:none;fill-rule:nonzero;fill:rgb(100%,100%,100%);fill-opacity:1;" d="M 32.667969 8.09375 C 31.550781 8.589844 30.351562 8.921875 29.09375 9.074219 C 30.378906 8.304688 31.363281 7.085938 31.828125 5.628906 C 30.625 6.34375 29.292969 6.859375 27.875 7.140625 C 26.738281 5.929688 25.121094 5.175781 23.332031 5.175781 C 19.894531 5.175781 17.109375 7.960938 17.109375 11.398438 C 17.109375 11.886719 17.167969 12.363281 17.269531 12.816406 C 12.097656 12.558594 7.515625 10.078125 4.445312 6.3125 C 3.910156 7.230469 3.601562 8.300781 3.601562 9.441406 C 3.601562 11.601562 4.699219 13.507812 6.371094 14.621094 C 5.351562 14.589844 4.390625 14.308594 3.550781 13.84375 C 3.550781 13.871094 3.550781 13.894531 3.550781 13.921875 C 3.550781 16.9375 5.695312 19.453125 8.542969 20.023438 C 8.023438 20.164062 7.472656 20.242188 6.902344 20.242188 C 6.503906 20.242188 6.113281 20.203125 5.734375 20.128906 C 6.523438 22.601562 8.824219 24.402344 11.546875 24.453125 C 9.417969 26.121094 6.734375 27.117188 3.816406 27.117188 C 3.316406 27.117188 2.820312 27.089844 2.332031 27.03125 C 5.085938 28.796875 8.355469 29.824219 11.871094 29.824219 C 23.320312 29.824219 29.578125 20.34375 29.578125 12.121094 C 29.578125 11.851562 29.570312 11.582031 29.558594 11.3125 C 30.777344 10.4375 31.832031 9.339844 32.667969 8.09375 Z M 32.667969 8.09375 "/>
</g>
</svg>
