<?xml version="1.0" encoding="UTF-8"?>
<svg xmlns="http://www.w3.org/2000/svg" xmlns:xlink="http://www.w3.org/1999/xlink" viewBox="0 0 35 35" width="35px" height="35px">
<g id="surface1639988">
<path style=" stroke:none;fill-rule:nonzero;fill:rgb(100%,100%,100%);fill-opacity:1;" d="M 22.398438 7.699219 L 25.898438 7.699219 C 26.285156 7.699219 26.601562 7.386719 26.601562 7 L 26.601562 2.285156 C 26.601562 1.917969 26.316406 1.613281 25.953125 1.585938 C 24.839844 1.507812 22.664062 1.398438 21.097656 1.398438 C 16.800781 1.398438 14 3.976562 14 8.65625 L 14 13.300781 L 9.101562 13.300781 C 8.714844 13.300781 8.398438 13.613281 8.398438 14 L 8.398438 18.898438 C 8.398438 19.285156 8.714844 19.601562 9.101562 19.601562 L 14 19.601562 L 14 32.898438 C 14 33.285156 14.3125 33.601562 14.699219 33.601562 L 19.601562 33.601562 C 19.988281 33.601562 20.300781 33.285156 20.300781 32.898438 L 20.300781 19.601562 L 25.355469 19.601562 C 25.710938 19.601562 26.011719 19.332031 26.050781 18.976562 L 26.597656 14.078125 C 26.640625 13.664062 26.316406 13.300781 25.898438 13.300781 L 20.300781 13.300781 L 20.300781 9.800781 C 20.300781 8.640625 21.238281 7.699219 22.398438 7.699219 Z M 22.398438 7.699219 "/>
</g>
</svg>
