<?xml version="1.0" encoding="UTF-8"?>
<svg xmlns="http://www.w3.org/2000/svg" xmlns:xlink="http://www.w3.org/1999/xlink" viewBox="0 0 35 35" width="35px" height="35px">
<g id="surface1848883">
<path style=" stroke:none;fill-rule:nonzero;fill:rgb(100%,100%,100%);fill-opacity:1;" d="M 11.667969 4.375 C 7.644531 4.375 4.375 7.644531 4.375 11.667969 L 4.375 23.332031 C 4.375 27.355469 7.644531 30.625 11.667969 30.625 L 23.332031 30.625 C 27.355469 30.625 30.625 27.355469 30.625 23.332031 L 30.625 11.667969 C 30.625 7.644531 27.355469 4.375 23.332031 4.375 Z M 11.667969 7.292969 L 23.332031 7.292969 C 25.746094 7.292969 27.707031 9.253906 27.707031 11.667969 L 27.707031 23.332031 C 27.707031 25.746094 25.746094 27.707031 23.332031 27.707031 L 11.667969 27.707031 C 9.253906 27.707031 7.292969 25.746094 7.292969 23.332031 L 7.292969 11.667969 C 7.292969 9.253906 9.253906 7.292969 11.667969 7.292969 Z M 24.792969 8.75 C 23.984375 8.75 23.332031 9.402344 23.332031 10.207031 C 23.332031 11.015625 23.984375 11.667969 24.792969 11.667969 C 25.597656 11.667969 26.25 11.015625 26.25 10.207031 C 26.25 9.402344 25.597656 8.75 24.792969 8.75 Z M 17.5 10.207031 C 13.480469 10.207031 10.207031 13.480469 10.207031 17.5 C 10.207031 21.519531 13.480469 24.792969 17.5 24.792969 C 21.519531 24.792969 24.792969 21.519531 24.792969 17.5 C 24.792969 13.480469 21.519531 10.207031 17.5 10.207031 Z M 17.5 13.125 C 19.910156 13.125 21.875 15.089844 21.875 17.5 C 21.875 19.910156 19.910156 21.875 17.5 21.875 C 15.089844 21.875 13.125 19.910156 13.125 17.5 C 13.125 15.089844 15.089844 13.125 17.5 13.125 Z M 17.5 13.125 "/>
</g>
</svg>
